<svg xmlns="http://www.w3.org/2000/svg" width="860" height="860" viewBox="0 0 860 860" version="1.1">
	<path d="M 406.238 148.762 C 401.641 153.359, 392.321 184.992, 389.816 204.500 C 389.181 209.450, 388.593 213.607, 388.509 213.738 C 388.426 213.869, 383.890 212.814, 378.429 211.393 C 370.967 209.453, 365.021 208.682, 354.500 208.290 L 340.500 207.769 330.690 211.540 C 325.294 213.614, 319.556 216.546, 317.940 218.056 C 311.990 223.614, 314.229 225.858, 331 231.150 C 345.752 235.805, 345.592 235.741, 344.750 236.583 C 343.593 237.740, 304.375 245, 299.279 245 C 295.972 245, 291.047 243.901, 285.848 242.004 C 278.284 239.243, 277.455 239.127, 275.319 240.527 C 273.778 241.536, 273 243.017, 273 244.939 C 273 249.150, 282.965 257.802, 294.680 263.763 C 299.801 266.368, 303.988 268.725, 303.984 269 C 303.980 269.275, 301.394 270.919, 298.238 272.654 C 295.082 274.389, 284.654 281.812, 275.064 289.150 C 238.290 317.288, 220.471 344.300, 205.897 394 C 195.311 430.101, 194.343 460.886, 202.631 497.952 C 208.542 524.394, 217.895 546.059, 230.193 561.803 L 235.117 568.106 232.428 577.303 C 229.485 587.366, 220.380 613.802, 219.214 615.666 C 218.665 616.545, 217.138 616.484, 213.025 615.416 C 205.995 613.593, 202.606 613.631, 195.932 615.610 C 188.207 617.900, 183.250 620.638, 182.490 623.032 C 181.297 626.789, 184.428 629.769, 191.978 632.062 C 198.311 633.986, 200 634.093, 210.529 633.247 C 218.583 632.599, 222.578 631.850, 223.640 630.788 C 225.321 629.107, 228.266 621.256, 236.994 595.188 C 240.182 585.667, 242.977 577.690, 243.205 577.462 C 243.432 577.234, 248.092 580.892, 253.559 585.590 C 291.657 618.327, 329.350 631.713, 398.305 636.994 C 415.495 638.310, 422.809 639.816, 440.500 645.683 C 459.774 652.075, 466.149 654.824, 482.418 663.758 C 493.014 669.577, 498.057 673.040, 502.789 677.746 C 506.249 681.186, 509.423 684, 509.844 684 C 513.846 684, 532.879 665.927, 535.511 659.627 C 537.562 654.719, 537.398 653.307, 534.429 650.338 C 532.191 648.100, 531.317 647.854, 527.679 648.435 C 519.772 649.699, 513.099 655.058, 508.631 663.733 L 506.967 666.965 499.733 662.297 C 489.368 655.608, 465.902 643.849, 456.250 640.509 C 451.712 638.939, 448 637.346, 448 636.971 C 448 636.595, 451.633 635.985, 456.073 635.614 C 477.993 633.786, 510.946 626.358, 539.852 616.728 L 561.204 609.615 580.352 610.745 C 608.027 612.377, 622.366 616.409, 637.682 626.863 C 646.112 632.617, 656.123 637.031, 659.105 636.308 C 660.422 635.989, 665.227 633.276, 669.781 630.280 C 684.241 620.767, 692.173 606.897, 687.850 598.684 C 686.285 595.710, 685.060 595.033, 681.210 595.015 C 675.204 594.987, 668.260 599.831, 663.649 607.266 C 662.705 608.787, 660.627 613.287, 659.031 617.266 C 657.435 621.245, 655.509 624.629, 654.751 624.788 C 653.992 624.946, 649.895 622.806, 645.647 620.032 C 627.178 607.975, 611.932 602.816, 590 601.200 L 580.500 600.500 587.255 596.698 C 597.260 591.068, 607.500 582.402, 616.602 571.865 C 649.457 533.828, 663.635 501.082, 667.112 455.207 C 669.514 423.516, 665.372 395.667, 653.973 366.864 C 636.853 323.602, 615.985 295.634, 583.738 272.732 C 579.207 269.515, 573.250 264.134, 570.500 260.775 C 564.359 253.274, 557.308 248.295, 545.341 243.010 C 532.196 237.204, 522.656 235, 510.673 235 C 505.170 235, 500.903 234.764, 501.191 234.475 C 501.480 234.187, 509.092 232.795, 518.108 231.382 C 533.687 228.942, 540.897 228.736, 548.092 230.527 C 551.385 231.347, 554 228.911, 554 225.022 C 554 220.596, 542.021 210.078, 530.589 204.465 C 516.852 197.720, 511.210 196.535, 492.750 196.516 C 484.087 196.507, 477 196.394, 477 196.264 C 477.001 194.996, 486.324 169.284, 487.913 166.170 C 490.653 160.800, 490.588 157.432, 487.710 155.546 C 482.704 152.266, 471.228 158.847, 456.423 173.488 C 448.259 181.561, 435.403 196.362, 430.773 203.017 L 429.046 205.500 429.619 201 C 430.648 192.927, 435.112 171.838, 437.541 163.577 C 439.851 155.719, 439.866 155.432, 438.100 153 C 435.962 150.056, 429.841 148.451, 416.894 147.438 C 409.056 146.825, 408.050 146.950, 406.238 148.762 M 253.336 344.872 C 248.307 348.514, 243.547 354.509, 240.861 360.582 C 238.116 366.788, 237.850 376.456, 240.323 380.149 C 245.236 387.484, 257.143 385.729, 266.195 376.335 C 275.612 366.563, 276.556 353.287, 268.456 344.547 C 265.043 340.864, 258.680 341.001, 253.336 344.872 M 238.500 400.959 C 232.842 403.315, 227.756 412.555, 225.782 424.066 C 224.793 429.835, 224.899 432.350, 226.506 441.165 C 227.974 449.215, 228.326 455.169, 228.098 468.093 C 227.841 482.684, 228.127 486.363, 230.470 498.593 C 233.343 513.588, 235.715 519.844, 239.722 522.996 C 242.572 525.238, 248.222 525.662, 249.762 523.750 C 251.782 521.243, 252.150 516.029, 250.680 510.767 C 248.920 504.465, 247.474 480.410, 247.568 459 C 247.631 444.845, 247.913 442.475, 250.818 431.682 C 252.568 425.183, 253.990 417.983, 253.978 415.682 C 253.923 405.123, 246.183 397.761, 238.500 400.959" stroke="none" fill="black" fill-rule="evenodd"/>
</svg>